Coordinates
version=1
nRows=40
nColumns=30
inDegrees=yes

Units are S.I. units (second, meters, Newtons, ...)
Angles are in degrees.

endheader
time	floatyaw	floatroll	floatpitch	floatx	floaty	floatz	pro_sup_l	deviation_l	flexion_l	cmc_flexion_l	cmc_abduction_l	mp_flexion_l	ip_flexion_l	2mcp_flexion_l	2mcp_abduction_l	2pm_flexion_l	2md_flexion_l	3mcp_flexion_l	3mcp_abduction_l	3pm_flexion_l	3md_flexion_l	4mcp_flexion_l	4mcp_abduction_l	4pm_flexion_l	4md_flexion_l	5mcp_flexion_l	5mcp_abduction_l	5pm_flexion_l	5md_flexion_l
-1.495000	-160.147433	-5.066637	-73.570646	0.082307	-0.182841	-0.014926	98.962843	4.503714	-0.002804	17.023941	10.280614	-25.721237	-42.996886	28.246745	6.274992	43.387648	29.303675	24.678109	3.944207	42.942163	27.935278	13.269509	-4.112066	50.887856	34.711321	1.052149	-7.683723	60.057105	41.503085
-1.485000	-160.147433	-5.066637	-73.570646	0.082312	-0.182831	-0.014925	98.973363	4.508982	0.000645	17.015221	10.277701	-25.729740	-43.020929	28.242978	6.275627	43.387553	29.301054	24.689214	3.944644	42.923885	27.922352	13.270351	-4.111122	50.885621	34.716181	1.066124	-7.687865	60.045811	41.499802
-1.475000	-160.147433	-5.066637	-73.570646	0.082315	-0.182825	-0.014924	98.976247	4.510900	0.002160	17.000494	10.297430	-25.725184	-43.033618	28.240307	6.278387	43.391184	29.302799	24.699165	3.943800	42.915590	27.919116	13.270522	-4.111476	50.889180	34.725485	1.083835	-7.692438	60.028103	41.492376
-1.465000	-160.147433	-5.066637	-73.570646	0.082315	-0.182823	-0.014925	98.972341	4.509779	0.001980	16.981579	10.343514	-25.711336	-43.036012	28.238593	6.284372	43.399456	29.309045	24.705770	3.942173	42.919390	27.925121	13.269257	-4.113316	50.900851	34.737392	1.102206	-7.696908	60.007476	41.482530
-1.455000	-160.147433	-5.066637	-73.570646	0.082312	-0.182824	-0.014924	98.964596	4.507114	0.000794	16.962028	10.410651	-25.695160	-43.029770	28.236956	6.293678	43.412774	29.319955	24.707461	3.940549	42.934450	27.938022	13.266013	-4.116301	50.920604	34.749142	1.117376	-7.700546	59.988954	41.473489
-1.445000	-160.147433	-5.066637	-73.570646	0.082309	-0.182827	-0.014923	98.956709	4.504803	-0.000571	16.945898	10.486287	-25.684244	-43.018002	28.234533	6.304938	43.430691	29.334966	24.704355	3.939680	42.956128	27.953676	13.260849	-4.119695	50.945608	34.757848	1.126142	-7.702429	59.977011	41.468200
-1.435000	-160.147433	-5.066637	-73.570646	0.082305	-0.182832	-0.014921	98.951079	4.503983	-0.001513	16.935932	10.556784	-25.683678	-43.005435	28.231300	6.315633	43.452089	29.352402	24.698442	3.939955	42.977322	27.967341	13.254610	-4.122746	50.971119	34.761618	1.127612	-7.701848	59.973584	41.467629
-1.425000	-160.147433	-5.066637	-73.570646	0.082304	-0.182836	-0.014919	98.947607	4.504438	-0.001894	16.932105	10.613934	-25.693832	-42.997000	28.228415	6.323127	43.475626	29.369670	24.692759	3.941220	42.991681	27.975530	13.248720	-4.125085	50.992387	34.760362	1.124072	-7.698794	59.977248	41.470012
-1.415000	-160.147433	-5.066637	-73.570646	0.082304	-0.182839	-0.014916	98.944478	4.505146	-0.002066	16.931477	10.657300	-25.710377	-42.995515	28.227885	6.325951	43.499920	29.383863	24.689959	3.942833	42.996894	27.977543	13.244711	-4.126874	51.006540	34.755703	1.120398	-7.694059	59.983986	41.471483
-1.405000	-160.147433	-5.066637	-73.570646	0.082306	-0.182841	-0.014914	98.940338	4.505532	-0.002619	16.929588	10.691199	-25.726852	-43.000244	28.231709	6.324642	43.523234	29.392496	24.690994	3.943973	42.995986	27.975779	13.243680	-4.128589	51.013403	34.750056	1.121995	-7.688851	59.989219	41.467963
-1.395000	-160.147433	-5.066637	-73.570646	0.082309	-0.182841	-0.014911	98.935957	4.506234	-0.003901	16.922636	10.719361	-25.738380	-43.007542	28.240874	6.321579	43.543021	29.394203	24.694581	3.944096	42.995488	27.974491	13.245781	-4.130619	51.014902	34.745492	1.131911	-7.684271	59.990207	41.457584
-1.385000	-160.147433	-5.066637	-73.570646	0.082313	-0.182838	-0.014907	98.933801	4.508639	-0.005587	16.909116	10.741847	-25.744042	-43.013061	28.254674	6.319782	43.556040	29.389203	24.697787	3.943294	43.001317	27.977489	13.249913	-4.132961	51.013548	34.743000	1.148632	-7.681068	59.987528	41.442312
-1.375000	-160.147433	-5.066637	-73.570646	0.082315	-0.182833	-0.014902	98.935884	4.513547	-0.006649	16.890027	10.756202	-25.746372	-43.013847	28.270807	6.321261	43.559444	29.379345	24.697546	3.942307	43.014865	27.985997	13.253974	-4.135232	51.010972	34.742372	1.166205	-7.679720	59.984688	41.427527
-1.365000	-160.147433	-5.066637	-73.570646	0.082318	-0.182826	-0.014898	98.941857	4.520147	-0.005886	16.867847	10.760704	-25.748793	-43.009202	28.286256	6.325986	43.552439	29.367602	24.692404	3.942129	43.031784	27.997848	13.255844	-4.136896	51.007225	34.742454	1.177178	-7.680592	59.985868	41.419383
-1.355000	-160.147433	-5.066637	-73.570646	0.082321	-0.182820	-0.014895	98.949104	4.526237	-0.002677	16.845244	10.756209	-25.753108	-43.000208	28.298310	6.332154	43.537534	29.357210	24.683509	3.943478	43.044212	28.008578	13.254629	-4.137483	51.001131	34.741567	1.176835	-7.683907	59.993216	41.421384
-1.345000	-160.147433	-5.066637	-73.570646	0.082323	-0.182813	-0.014896	98.954709	4.529536	0.002675	16.824293	10.745350	-25.758577	-42.988430	28.304957	6.337575	43.520427	29.350958	24.674028	3.946448	43.045115	28.013933	13.251158	-4.136680	50.991503	34.738176	1.165886	-7.689599	60.005611	41.432448
-1.335000	-160.147433	-5.066637	-73.570646	0.082327	-0.182808	-0.014900	98.957483	4.529020	0.009299	16.806209	10.730689	-25.762692	-42.974629	28.304571	6.341163	43.508227	29.350900	24.667139	3.950521	43.032233	28.012422	13.247140	-4.134376	50.978584	34.731774	1.149582	-7.697240	60.020000	41.447890
-1.325000	-160.147433	-5.066637	-73.570646	0.082331	-0.182802	-0.014907	98.958412	4.525354	0.016485	16.791231	10.713860	-25.762921	-42.958517	28.295751	6.343500	43.506599	29.358153	24.663986	3.954848	43.009325	28.006262	13.243675	-4.130736	50.964776	34.723496	1.133895	-7.706155	60.034396	41.462616
-1.315000	-160.147433	-5.066637	-73.570646	0.082335	-0.182797	-0.014914	98.959591	4.520340	0.024034	16.778668	10.696286	-25.758457	-42.940113	28.278191	6.346146	43.517243	29.372402	24.663239	3.958566	42.983974	27.999873	13.240523	-4.126302	50.953948	34.715761	1.121724	-7.715632	60.050182	41.474124
-1.305000	-160.147433	-5.066637	-73.570646	0.082338	-0.182790	-0.014921	98.962813	4.516013	0.031954	16.767360	10.680618	-25.750975	-42.921621	28.254210	6.350289	43.537107	29.391317	24.662601	3.961019	42.963419	27.996891	13.236808	-4.121951	50.949503	34.710927	1.111878	-7.725030	60.071630	41.483186
-1.295000	-160.147433	-5.066637	-73.570646	0.082340	-0.182783	-0.014925	98.968646	4.513891	0.039964	16.756388	10.671528	-25.743860	-42.907505	28.229253	6.355734	43.559867	29.410765	24.660806	3.961847	42.951159	27.997910	13.232250	-4.118653	50.952355	34.709870	1.100996	-7.733654	60.102515	41.492119
-1.285000	-160.147433	-5.066637	-73.570646	0.082342	-0.182775	-0.014928	98.975930	4.514426	0.047534	16.745312	10.674666	-25.740408	-42.901535	28.209988	6.360921	43.578825	29.426322	24.658193	3.960975	42.946373	28.000682	13.227426	-4.117111	50.960235	34.711587	1.086198	-7.740434	60.141937	41.502392
-1.275000	-160.147433	-5.066637	-73.570646	0.082343	-0.182768	-0.014928	98.981523	4.516622	0.054535	16.733497	10.693799	-25.742425	-42.902775	28.200734	6.363841	43.589522	29.435369	24.655473	3.958537	42.945963	28.002389	13.222617	-4.117496	50.968828	34.714148	1.066306	-7.743733	60.182386	41.513524
-1.265000	-160.147433	-5.066637	-73.570646	0.082344	-0.182762	-0.014928	98.980831	4.518110	0.061796	16.719226	10.727861	-25.750187	-42.904444	28.200938	6.363116	43.590797	29.438251	24.652127	3.954775	42.947358	28.001997	13.216523	-4.119413	50.974036	34.716229	1.041527	-7.741704	60.211928	41.523774
-1.255000	-160.147433	-5.066637	-73.570646	0.082347	-0.182758	-0.014928	98.969733	4.516092	0.070756	16.699745	10.770523	-25.763324	-42.897523	28.205935	6.358625	43.584346	29.437723	24.646191	3.949964	42.950371	28.001102	13.206535	-4.122094	50.974015	34.718098	1.013170	-7.733209	60.219732	41.531607
-1.245000	-160.147433	-5.066637	-73.570646	0.082352	-0.182755	-0.014929	98.947470	4.509056	0.082196	16.672656	10.813342	-25.781302	-42.876836	28.210559	6.351534	43.573797	29.437320	24.635768	3.944450	42.957612	28.003142	13.190930	-4.124693	50.969949	34.721417	0.984424	-7.718809	60.201755	41.536491
-1.235000	-160.147433	-5.066637	-73.570646	0.082356	-0.182754	-0.014932	98.918707	4.498254	0.094927	16.637830	10.850534	-25.802816	-42.845180	28.212817	6.343961	43.563831	29.439771	24.621070	3.938754	42.973466	28.011720	13.171482	-4.126564	50.965269	34.727962	0.961413	-7.701081	60.162995	41.538433
-1.225000	-160.147433	-5.066637	-73.570646	0.082358	-0.182751	-0.014934	98.892975	4.487799	0.105537	16.598406	10.881715	-25.824664	-42.812523	28.215037	6.338450	43.559070	29.445980	24.605421	3.933605	43.001775	28.028646	13.154311	-4.127394	50.963726	34.737957	0.952691	-7.683974	60.114892	41.536836
-1.215000	-160.147433	-5.066637	-73.570646	0.082356	-0.182747	-0.014935	98.881074	4.482940	0.109656	16.559864	10.910706	-25.841386	-42.790673	28.221973	6.337252	43.562588	29.454680	24.594330	3.929783	43.043088	28.052411	13.147784	-4.127183	50.967325	34.749040	0.966347	-7.671504	60.069603	41.529922
-1.205000	-160.147433	-5.066637	-73.570646	0.082349	-0.182741	-0.014934	98.889803	4.487266	0.104157	16.527359	10.941914	-25.846629	-42.786648	28.237393	6.341500	43.574841	29.463077	24.592964	3.927788	43.093213	28.078157	13.158356	-4.126109	50.975228	34.756829	1.005805	-7.666438	60.034839	41.515576
-1.195000	-160.147433	-5.066637	-73.570646	0.082339	-0.182734	-0.014931	98.917716	4.500375	0.089083	16.502722	10.977366	-25.836009	-42.798764	28.261411	6.350588	43.593785	29.468502	24.603355	3.927574	43.144342	28.099689	13.186727	-4.124368	50.984231	34.757083	1.066768	-7.669422	60.012050	41.493264
-1.185000	-160.147433	-5.066637	-73.570646	0.082328	-0.182727	-0.014927	98.954608	4.517461	0.068223	16.483093	11.015877	-25.809878	-42.817779	28.290062	6.362166	43.615846	29.470076	24.622974	3.928576	43.188159	28.112477	13.226696	-4.122083	50.990360	34.748222	1.137392	-7.678805	59.998127	41.465539
-1.175000	-160.147433	-5.066637	-73.570646	0.082321	-0.182722	-0.014925	98.985705	4.531332	0.047953	16.462313	11.053788	-25.774101	-42.832165	28.317038	6.372946	43.636800	29.469000	24.645552	3.930040	43.218958	28.115605	13.267550	-4.119334	50.990600	34.732417	1.202025	-7.691184	59.988695	41.437752
-1.165000	-160.147433	-5.066637	-73.570646	0.082318	-0.182719	-0.014924	98.998596	4.535869	0.034830	16.434469	11.086379	-25.738082	-42.834082	28.336289	6.380073	43.652400	29.467270	24.663681	3.931444	43.235134	28.111442	13.298686	-4.116249	50.983992	34.714493	1.246764	-7.702518	59.980881	41.416020
-1.155000	-160.147433	-5.066637	-73.570646	0.082320	-0.182718	-0.014926	98.988993	4.528992	0.033008	16.397462	11.109781	-25.711130	-42.822518	28.343998	6.382362	43.659312	29.466193	24.671708	3.932737	43.238825	28.103746	13.313909	-4.113098	50.971956	34.699545	1.264141	-7.709492	59.974539	41.404843
-1.145000	-160.147433	-5.066637	-73.570646	0.082328	-0.182717	-0.014929	98.962092	4.513475	0.042649	16.354382	11.123067	-25.699194	-42.802388	28.339292	6.380699	43.656453	29.466055	24.667510	3.934265	43.234545	28.095863	13.313144	-4.110310	50.957994	34.690957	1.254934	-7.710610	59.971933	41.405813
-1.135000	-160.147433	-5.066637	-73.570646	0.082339	-0.182714	-0.014933	98.929156	4.495365	0.060063	16.311918	11.129293	-25.703499	-42.781040	28.323973	6.377378	43.645818	29.466939	24.652640	3.936481	43.227522	28.089984	13.301070	-4.108420	50.946791	34.689828	1.226643	-7.706537	59.976424	41.417810
-1.125000	-160.147433	-5.066637	-73.570646	0.082350	-0.182710	-0.014935	98.901727	4.481067	0.079477	16.276898	11.134303	-25.721258	-42.764763	28.301787	6.374789	43.631946	29.469583	24.631327	3.939627	43.221976	28.087210	13.283916	-4.107916	50.942781	34.695557	1.189668	-7.699551	59.990856	41.438036
-1.115000	-160.147433	-5.066637	-73.570646	0.082358	-0.182705	-0.014936	98.886795	4.474705	0.095539	16.253174	11.143667	-25.747620	-42.757064	28.277512	6.374212	43.620293	29.475395	24.608999	3.943556	43.219721	28.087720	13.266492	-4.109038	50.948598	34.706742	1.153198	-7.692439	60.016163	41.463046
-1.105000	-160.147433	-5.066637	-73.570646	0.082362	-0.182701	-0.014935	98.885063	4.476927	0.105301	16.240522	11.159931	-25.777655	-42.758891	28.255907	6.375373	43.615468	29.485622	24.590791	3.947796	43.219774	28.090798	13.250969	-4.111657	50.964066	34.721741	1.122830	-7.687474	60.050401	41.489295
